<svg width="330" height="48" viewBox="0 0 330 48" fill="none" xmlns="http://www.w3.org/2000/svg">
<path d="M32.5625 3.0625L30.8125 16.25C30.2083 16.0833 29.6042 15.9688 29 15.9062C28.3958 15.8438 27.7917 15.8125 27.1875 15.8125C25.6458 15.8125 24.1771 16.0208 22.7812 16.4375C21.3854 16.8333 20.1458 17.4479 19.0625 18.2812C18 19.1146 17.1458 20.1562 16.5 21.4062C15.875 22.6562 15.5625 24.125 15.5625 25.8125C15.5625 26.8958 15.7292 27.8333 16.0625 28.625C16.4167 29.4167 16.9062 30.0729 17.5312 30.5938C18.1562 31.1146 18.8958 31.5 19.75 31.75C20.6042 32 21.5417 32.125 22.5625 32.125C23.3333 32.125 24.1354 32.0417 24.9688 31.875C25.8021 31.7083 26.625 31.4896 27.4375 31.2188C28.25 30.9479 29.0417 30.6354 29.8125 30.2812C30.5833 29.9271 31.2917 29.5625 31.9375 29.1875L30.6875 43.875C29.875 44.2917 28.9896 44.6667 28.0312 45C27.0938 45.3125 26.125 45.5938 25.125 45.8438C24.125 46.0729 23.125 46.25 22.125 46.375C21.125 46.5 20.1667 46.5625 19.25 46.5625C16.6042 46.5625 14.1354 46.0729 11.8438 45.0938C9.55208 44.1146 7.5625 42.7708 5.875 41.0625C4.1875 39.3542 2.85417 37.3438 1.875 35.0312C0.916667 32.6979 0.4375 30.1875 0.4375 27.5C0.4375 23.9375 0.947917 20.5833 1.96875 17.4375C2.98958 14.2708 4.48958 11.5 6.46875 9.125C8.44792 6.75 10.8958 4.875 13.8125 3.5C16.75 2.125 20.125 1.4375 23.9375 1.4375C25.375 1.4375 26.8438 1.55208 28.3438 1.78125C29.8646 2.01042 31.2708 2.4375 32.5625 3.0625ZM54.8438 3L52.6562 45.5625L39.4688 46.25L38.2188 3.875L54.8438 3ZM94.5 2.9375L94.1875 16.1875L84.875 16.5625L83.75 45.5625L70.5625 46.25L69.375 17.25L60.0625 17.75L60.4375 3L94.5 2.9375ZM138.812 4.6875L124.125 28.6875L124.562 46.375H108.5L108.875 28.8125L97.4375 5.625L113.375 3.625L118.375 17.125L123.812 3.625L138.812 4.6875Z" fill="#072428"/>
<path d="M180.75 40.625C179.771 41.8542 178.562 42.9271 177.125 43.8438C175.688 44.7604 174.146 45.5208 172.5 46.125C170.854 46.7292 169.167 47.1771 167.438 47.4688C165.708 47.7812 164.062 47.9375 162.5 47.9375C159.479 47.9375 156.698 47.3958 154.156 46.3125C151.615 45.2292 149.417 43.7396 147.562 41.8438C145.729 39.9271 144.292 37.6771 143.25 35.0938C142.208 32.5104 141.688 29.7292 141.688 26.75C141.688 24.4792 141.948 22.2604 142.469 20.0938C142.99 17.9062 143.729 15.8542 144.688 13.9375C145.667 12 146.854 10.2292 148.25 8.625C149.646 7 151.229 5.60417 153 4.4375C154.771 3.27083 156.708 2.36458 158.812 1.71875C160.917 1.07292 163.167 0.75 165.562 0.75C166.458 0.75 167.417 0.791667 168.438 0.875C169.458 0.9375 170.469 1.0625 171.469 1.25C172.49 1.41667 173.479 1.65625 174.438 1.96875C175.396 2.28125 176.271 2.66667 177.062 3.125L176.188 15.0625C175.021 14.625 173.812 14.3333 172.562 14.1875C171.333 14.0208 170.125 13.9375 168.938 13.9375C167.271 13.9375 165.708 14.1979 164.25 14.7188C162.812 15.2188 161.552 15.9479 160.469 16.9062C159.406 17.8646 158.562 19.0312 157.938 20.4062C157.312 21.7812 157 23.3333 157 25.0625C157 26.1458 157.146 27.1979 157.438 28.2188C157.729 29.2188 158.167 30.1146 158.75 30.9062C159.354 31.6771 160.094 32.3021 160.969 32.7812C161.865 33.2604 162.896 33.5 164.062 33.5C164.854 33.5 165.667 33.3958 166.5 33.1875C167.354 32.9792 168.083 32.625 168.688 32.125L168.812 29.6875L161.312 29.5625L161.688 20.1875C164.792 20.0833 167.896 20 171 19.9375C174.104 19.8542 177.229 19.75 180.375 19.625L180.75 40.625ZM224.406 3C223.469 10.3333 222.667 17.6354 222 24.9062C221.333 32.1562 220.698 39.4583 220.094 46.8125L207.281 47.75L207.844 42.9375C207.427 43.4167 206.938 43.8333 206.375 44.1875C205.833 44.5417 205.25 44.8333 204.625 45.0625C204 45.2708 203.354 45.4271 202.688 45.5312C202.021 45.6146 201.385 45.6458 200.781 45.625C199.365 45.6042 198.031 45.3333 196.781 44.8125C195.531 44.2708 194.385 43.5625 193.344 42.6875C192.302 41.7917 191.365 40.7604 190.531 39.5938C189.698 38.4062 188.99 37.1667 188.406 35.875C187.844 34.5625 187.406 33.2292 187.094 31.875C186.802 30.5208 186.656 29.2083 186.656 27.9375C186.656 26.0625 186.688 24.125 186.75 22.125C186.833 20.1042 186.969 18.0833 187.156 16.0625C187.344 14.0417 187.583 12.0417 187.875 10.0625C188.188 8.08333 188.573 6.1875 189.031 4.375C191.573 4.5 194.125 4.61458 196.688 4.71875C199.25 4.82292 201.802 4.85417 204.344 4.8125C203.865 6.625 203.385 8.44792 202.906 10.2812C202.448 12.0938 202.031 13.9271 201.656 15.7812C201.281 17.6146 200.979 19.4583 200.75 21.3125C200.521 23.1667 200.406 25.0417 200.406 26.9375C200.406 27.375 200.427 28 200.469 28.8125C200.51 29.625 200.615 30.4271 200.781 31.2188C200.969 32.0104 201.24 32.7083 201.594 33.3125C201.969 33.8958 202.49 34.1875 203.156 34.1875C203.948 34.1875 204.656 33.8542 205.281 33.1875C205.906 32.5 206.458 31.5833 206.938 30.4375C207.417 29.2917 207.823 27.9688 208.156 26.4688C208.51 24.9688 208.802 23.4062 209.031 21.7812C209.281 20.1354 209.479 18.4792 209.625 16.8125C209.771 15.1458 209.875 13.5833 209.938 12.125C210.021 10.6458 210.073 9.32292 210.094 8.15625C210.135 6.98958 210.156 6.08333 210.156 5.4375C210.156 5.02083 210.146 4.61458 210.125 4.21875C210.104 3.82292 210.073 3.41667 210.031 3C211.385 3.04167 212.729 3.07292 214.062 3.09375C215.396 3.11458 216.74 3.125 218.094 3.125C219.135 3.125 220.177 3.125 221.219 3.125C222.281 3.10417 223.344 3.0625 224.406 3ZM246.594 3L244.406 45.5625L231.219 46.25L229.969 3.875L246.594 3ZM288.562 22.1875C288.562 25.1042 288.188 27.7188 287.438 30.0312C286.688 32.3438 285.635 34.3958 284.281 36.1875C282.948 37.9583 281.354 39.4688 279.5 40.7188C277.646 41.9688 275.615 43 273.406 43.8125C271.198 44.6042 268.844 45.1875 266.344 45.5625C263.865 45.9375 261.312 46.125 258.688 46.125C257.708 46.125 256.75 46.1042 255.812 46.0625C254.875 46 253.917 45.9167 252.938 45.8125L253.812 5.125C256.104 4.39583 258.458 3.88542 260.875 3.59375C263.312 3.28125 265.729 3.125 268.125 3.125C271.104 3.125 273.844 3.54167 276.344 4.375C278.844 5.20833 281 6.4375 282.812 8.0625C284.625 9.66667 286.031 11.6562 287.031 14.0312C288.052 16.3854 288.562 19.1042 288.562 22.1875ZM267.312 34.1875C268.562 34 269.698 33.625 270.719 33.0625C271.76 32.4792 272.656 31.7708 273.406 30.9375C274.156 30.0833 274.729 29.125 275.125 28.0625C275.542 26.9792 275.75 25.8333 275.75 24.625C275.75 23.4375 275.625 22.3333 275.375 21.3125C275.125 20.2708 274.719 19.375 274.156 18.625C273.594 17.8542 272.854 17.25 271.938 16.8125C271.021 16.3542 269.896 16.1042 268.562 16.0625L267.312 34.1875ZM329.406 21.75C329.406 23.5625 329.281 25.375 329.031 27.1875C325.469 27.4167 321.927 27.7917 318.406 28.3125C314.885 28.8125 311.365 29.3125 307.844 29.8125C308.385 31.3125 309.229 32.5104 310.375 33.4062C311.542 34.3021 312.927 34.75 314.531 34.75C315.365 34.75 316.271 34.5938 317.25 34.2812C318.25 33.9688 319.24 33.5833 320.219 33.125C321.198 32.6458 322.135 32.1354 323.031 31.5938C323.927 31.0521 324.698 30.5625 325.344 30.125L323.844 44.3125C323.031 44.9375 322.146 45.4688 321.188 45.9062C320.25 46.3438 319.271 46.6979 318.25 46.9688C317.229 47.2396 316.198 47.4375 315.156 47.5625C314.115 47.6875 313.094 47.75 312.094 47.75C310.031 47.75 308.146 47.4688 306.438 46.9062C304.729 46.3438 303.177 45.5625 301.781 44.5625C300.406 43.5417 299.198 42.3438 298.156 40.9688C297.115 39.5938 296.25 38.0938 295.562 36.4688C294.875 34.8438 294.354 33.125 294 31.3125C293.646 29.5 293.469 27.6667 293.469 25.8125C293.469 23.875 293.646 21.9375 294 20C294.354 18.0625 294.885 16.1979 295.594 14.4062C296.323 12.6146 297.229 10.9583 298.312 9.4375C299.417 7.89583 300.698 6.55208 302.156 5.40625C303.615 4.26042 305.26 3.36458 307.094 2.71875C308.948 2.07292 310.99 1.75 313.219 1.75C315.073 1.75 316.76 2.01042 318.281 2.53125C319.823 3.03125 321.188 3.73958 322.375 4.65625C323.583 5.55208 324.625 6.625 325.5 7.875C326.396 9.125 327.125 10.5 327.688 12C328.271 13.4792 328.698 15.0521 328.969 16.7188C329.26 18.3646 329.406 20.0417 329.406 21.75ZM316.906 20.125C316.906 19.5417 316.844 18.9479 316.719 18.3438C316.594 17.7188 316.385 17.1562 316.094 16.6562C315.823 16.1562 315.458 15.75 315 15.4375C314.542 15.1042 313.969 14.9375 313.281 14.9375C312.448 14.9375 311.708 15.1667 311.062 15.625C310.438 16.0625 309.896 16.625 309.438 17.3125C308.979 17.9792 308.604 18.7083 308.312 19.5C308.021 20.2917 307.802 21.0208 307.656 21.6875L316.906 20.8125V20.125Z" fill="#44BDBD"/>
</svg>
